<?xml version="1.0" encoding="iso-8859-1"?>
<!-- Generator: Adobe Illustrator 18.0.0, SVG Export Plug-In . SVG Version: 6.00 Build 0)  -->
<!DOCTYPE svg PUBLIC "-//W3C//DTD SVG 1.1//EN" "http://www.w3.org/Graphics/SVG/1.1/DTD/svg11.dtd">
<svg version="1.1" id="Capa_1" xmlns="http://www.w3.org/2000/svg" xmlns:xlink="http://www.w3.org/1999/xlink" x="0px" y="0px"
	 viewBox="0 0 453.859 453.859" fill="#fff" style="enable-background:new 0 0 453.859 453.859;" xml:space="preserve">
<g>
	<path d="M448.359,204.616h-10.621l-2.538-56.678l14.614-23.027c0.56-0.881,0.856-1.903,0.856-2.947V65.488
		c0-3.038-2.463-5.5-5.5-5.5h-15.217c-3.037,0-5.5,2.462-5.5,5.5v14.25h-10.821v-14.25c0-3.038-2.463-5.5-5.5-5.5h-30.434
		c-3.037,0-5.5,2.462-5.5,5.5v14.25h-9.735v-14.25c0-3.038-2.463-5.5-5.5-5.5h-30.435c-3.037,0-5.5,2.462-5.5,5.5v14.25h-10.82
		v-14.25c0-3.038-2.463-5.5-5.5-5.5h-15.217c-3.037,0-5.5,2.462-5.5,5.5v56.476c0,1.043,0.297,2.066,0.856,2.947l14.609,23.021
		l-2.538,56.685h-0.155c-3.037,0-5.5,2.462-5.5,5.5v15.263h-12.164v-15.263c0-3.038-2.463-5.5-5.5-5.5h-35.089
		c-3.037,0-5.5,2.462-5.5,5.5v15.263h-12.164v-15.263c0-3.038-2.463-5.5-5.5-5.5h-35.089c-3.037,0-5.5,2.462-5.5,5.5v15.263h-12.164
		v-15.263c0-3.038-2.463-5.5-5.5-5.5h-0.157l-2.537-56.685l14.609-23.021c0.56-0.881,0.856-1.903,0.856-2.947V65.488
		c0-3.038-2.463-5.5-5.5-5.5h-15.217c-3.037,0-5.5,2.462-5.5,5.5v14.25h-10.82v-14.25c0-3.038-2.463-5.5-5.5-5.5H96.896
		c-3.037,0-5.5,2.462-5.5,5.5v14.25h-9.736v-14.25c0-3.038-2.463-5.5-5.5-5.5H45.726c-3.037,0-5.5,2.462-5.5,5.5v14.25h-10.82
		v-14.25c0-3.038-2.463-5.5-5.5-5.5H8.688c-3.037,0-5.5,2.462-5.5,5.5v56.476c0,1.043,0.297,2.066,0.856,2.947l14.613,23.027
		l-2.538,56.679H5.5c-3.037,0-5.5,2.462-5.5,5.5v178.255c0,3.038,2.463,5.5,5.5,5.5h181.43h80h181.43c3.037,0,5.5-2.462,5.5-5.5
		V210.116C453.859,207.079,451.396,204.616,448.359,204.616z M426.609,140.947H308.053l-8.557-13.484h135.67L426.609,140.947z
		 M299.209,70.988v14.25c0,3.038,2.463,5.5,5.5,5.5h21.82c3.037,0,5.5-2.462,5.5-5.5v-14.25h19.435v14.25c0,3.038,2.463,5.5,5.5,5.5
		h20.735c3.037,0,5.5-2.462,5.5-5.5v-14.25h19.434v14.25c0,3.038,2.463,5.5,5.5,5.5h21.821c3.037,0,5.5-2.462,5.5-5.5v-14.25h4.217
		v45.476H294.992V70.988H299.209z M310.289,151.948h114.08l2.359,52.668h-13.458c-3.037,0-5.5,2.462-5.5,5.5v15.263h-12.164v-15.263
		c0-3.038-2.463-5.5-5.5-5.5h-35.089c-3.037,0-5.5,2.462-5.5,5.5v15.263h-12.164v-15.263c0-3.038-2.463-5.5-5.5-5.5H307.93
		L310.289,151.948z M145.806,140.947H27.249l-8.557-13.484h135.67L145.806,140.947z M18.405,70.988v14.25c0,3.038,2.463,5.5,5.5,5.5
		h21.82c3.037,0,5.5-2.462,5.5-5.5v-14.25h19.434v14.25c0,3.038,2.463,5.5,5.5,5.5h20.736c3.037,0,5.5-2.462,5.5-5.5v-14.25h19.434
		v14.25c0,3.038,2.463,5.5,5.5,5.5h21.82c3.037,0,5.5-2.462,5.5-5.5v-14.25h4.217v45.476H14.188V70.988H18.405z M29.489,151.948
		h114.08l2.358,52.668h-23.921c-3.037,0-5.5,2.462-5.5,5.5v15.263h-12.165v-15.263c0-3.038-2.463-5.5-5.5-5.5H63.753
		c-3.037,0-5.5,2.462-5.5,5.5v15.263H46.089v-15.263c0-3.038-2.463-5.5-5.5-5.5H27.13L29.489,151.948z M279.429,382.872h-6.999
		v-53.384c0-25.089-20.411-45.5-45.5-45.5s-45.5,20.411-45.5,45.5v53.384h-7.001v-53.384c0-28.949,23.552-52.5,52.5-52.5
		s52.5,23.551,52.5,52.5V382.872z M192.43,382.872v-53.384c0-19.023,15.477-34.5,34.5-34.5s34.5,15.477,34.5,34.5v53.384H192.43z
		 M442.859,382.872H290.429v-53.384c0-35.014-28.486-63.5-63.5-63.5s-63.5,28.486-63.5,63.5v53.384H11V215.616h24.089v15.263
		c0,3.038,2.463,5.5,5.5,5.5h23.164c3.037,0,5.5-2.462,5.5-5.5v-15.263h24.088v15.263c0,3.038,2.463,5.5,5.5,5.5h23.165
		c3.037,0,5.5-2.462,5.5-5.5v-15.263h24.089v15.263c0,3.038,2.463,5.5,5.5,5.5h23.164c3.037,0,5.5-2.462,5.5-5.5v-15.263h24.089
		v15.263c0,3.038,2.463,5.5,5.5,5.5h23.164c3.037,0,5.5-2.462,5.5-5.5v-15.263h24.089v15.263c0,3.038,2.463,5.5,5.5,5.5h23.164
		c3.037,0,5.5-2.462,5.5-5.5v-15.263h24.089v15.263c0,3.038,2.463,5.5,5.5,5.5h23.164c3.037,0,5.5-2.462,5.5-5.5v-15.263h24.089
		v15.263c0,3.038,2.463,5.5,5.5,5.5h23.164c3.037,0,5.5-2.462,5.5-5.5v-15.263h24.089V382.872z"/>
	<path d="M77.529,195.988h18c3.037,0,5.5-2.462,5.5-5.5v-18c0-7.995-6.505-14.5-14.5-14.5s-14.5,6.505-14.5,14.5v18
		C72.029,193.525,74.492,195.988,77.529,195.988z M83.029,172.488c0-1.93,1.57-3.5,3.5-3.5s3.5,1.57,3.5,3.5v12.5h-7V172.488z"/>
	<path d="M62.93,281.488v-18c0-7.995-6.505-14.5-14.5-14.5s-14.5,6.505-14.5,14.5v18c0,3.038,2.463,5.5,5.5,5.5h18
		C60.467,286.988,62.93,284.525,62.93,281.488z M51.93,275.988h-7v-12.5c0-1.93,1.57-3.5,3.5-3.5s3.5,1.57,3.5,3.5V275.988z"/>
	<path d="M147.43,248.988c-7.995,0-14.5,6.505-14.5,14.5v18c0,3.038,2.463,5.5,5.5,5.5h18c3.037,0,5.5-2.462,5.5-5.5v-18
		C161.93,255.493,155.425,248.988,147.43,248.988z M150.93,275.988h-7v-12.5c0-1.93,1.57-3.5,3.5-3.5s3.5,1.57,3.5,3.5V275.988z"/>
	<path d="M306.43,248.988c-7.995,0-14.5,6.505-14.5,14.5v18c0,3.038,2.463,5.5,5.5,5.5h18c3.037,0,5.5-2.462,5.5-5.5v-18
		C320.93,255.493,314.425,248.988,306.43,248.988z M309.93,275.988h-7v-12.5c0-1.93,1.57-3.5,3.5-3.5s3.5,1.57,3.5,3.5V275.988z"/>
	<path d="M405.43,248.988c-7.995,0-14.5,6.505-14.5,14.5v18c0,3.038,2.463,5.5,5.5,5.5h18c3.037,0,5.5-2.462,5.5-5.5v-18
		C419.93,255.493,413.425,248.988,405.43,248.988z M408.93,275.988h-7v-12.5c0-1.93,1.57-3.5,3.5-3.5s3.5,1.57,3.5,3.5V275.988z"/>
	<path d="M358.329,195.988h18c3.037,0,5.5-2.462,5.5-5.5v-18c0-7.995-6.505-14.5-14.5-14.5s-14.5,6.505-14.5,14.5v18
		C352.829,193.525,355.292,195.988,358.329,195.988z M363.829,172.488c0-1.93,1.57-3.5,3.5-3.5s3.5,1.57,3.5,3.5v12.5h-7V172.488z"
		/>
	<path d="M69.859,322.488c0-3.038-2.463-5.5-5.5-5.5h-13c-3.037,0-5.5,2.462-5.5,5.5s2.463,5.5,5.5,5.5h13
		C67.396,327.988,69.859,325.525,69.859,322.488z"/>
	<path d="M76.359,331.988h-13c-3.037,0-5.5,2.462-5.5,5.5s2.463,5.5,5.5,5.5h13c3.037,0,5.5-2.462,5.5-5.5
		S79.396,331.988,76.359,331.988z"/>
	<path d="M360.359,281.988c3.037,0,5.5-2.462,5.5-5.5s-2.463-5.5-5.5-5.5h-13c-3.037,0-5.5,2.462-5.5,5.5s2.463,5.5,5.5,5.5H360.359
		z"/>
	<path d="M401.859,334.488c0,3.038,2.463,5.5,5.5,5.5h13c3.037,0,5.5-2.462,5.5-5.5s-2.463-5.5-5.5-5.5h-13
		C404.322,328.988,401.859,331.45,401.859,334.488z"/>
	<path d="M380.359,348.988h-13c-3.037,0-5.5,2.462-5.5,5.5s2.463,5.5,5.5,5.5h13c3.037,0,5.5-2.462,5.5-5.5
		S383.396,348.988,380.359,348.988z"/>
	<path d="M362.359,361.988h-13c-3.037,0-5.5,2.462-5.5,5.5s2.463,5.5,5.5,5.5h13c3.037,0,5.5-2.462,5.5-5.5
		S365.396,361.988,362.359,361.988z"/>
	<path d="M193.359,250.988h-13c-3.037,0-5.5,2.462-5.5,5.5s2.463,5.5,5.5,5.5h13c3.037,0,5.5-2.462,5.5-5.5
		S196.396,250.988,193.359,250.988z"/>
	<path d="M52.359,173.988c3.037,0,5.5-2.462,5.5-5.5s-2.463-5.5-5.5-5.5h-11c-3.037,0-5.5,2.462-5.5,5.5s2.463,5.5,5.5,5.5H52.359z"
		/>
	<path d="M117.359,192.988h11c3.037,0,5.5-2.462,5.5-5.5s-2.463-5.5-5.5-5.5h-11c-3.037,0-5.5,2.462-5.5,5.5
		S114.322,192.988,117.359,192.988z"/>
	<path d="M398.359,178.988h11c3.037,0,5.5-2.462,5.5-5.5s-2.463-5.5-5.5-5.5h-11c-3.037,0-5.5,2.462-5.5,5.5
		S395.322,178.988,398.359,178.988z"/>
	<path d="M378.359,109.988h11c3.037,0,5.5-2.462,5.5-5.5s-2.463-5.5-5.5-5.5h-11c-3.037,0-5.5,2.462-5.5,5.5
		S375.322,109.988,378.359,109.988z"/>
	<path d="M104.359,110.988h11c3.037,0,5.5-2.462,5.5-5.5s-2.463-5.5-5.5-5.5h-11c-3.037,0-5.5,2.462-5.5,5.5
		S101.322,110.988,104.359,110.988z"/>
</g>
<g>
</g>
<g>
</g>
<g>
</g>
<g>
</g>
<g>
</g>
<g>
</g>
<g>
</g>
<g>
</g>
<g>
</g>
<g>
</g>
<g>
</g>
<g>
</g>
<g>
</g>
<g>
</g>
<g>
</g>
</svg>
