<?xml version="1.0"?>
<svg xmlns="http://www.w3.org/2000/svg" viewBox="0 0 128 128" fill="#fff"><g><path d="M64.25,58.405h1.957a1.75,1.75,0,0,0,0-3.5H64.33l.7-4.608a1.75,1.75,0,0,0-3.461-.524l-.709,4.687a3.43,3.43,0,0,0,3.392,3.945Z"/><path d="M103.462,87.527c-4.722-1.29-9.651-1.324-14.5-1.715a18.6,18.6,0,0,0,1.808-7.979V59.487a8.546,8.546,0,0,0,3.457-15.735A5.4,5.4,0,0,0,91.68,33.587h-.974C89.345,14.23,65.886.8,64.858.225a1.754,1.754,0,0,0-1.716,0C62.114.8,38.655,14.23,37.294,33.587H36.32a5.4,5.4,0,0,0-2.677,10.091A8.549,8.549,0,0,0,37.228,59.52V77.833a18.6,18.6,0,0,0,1.791,7.944c-4.844.377-9.764.462-14.48,1.75a24.218,24.218,0,0,0-17.789,23.3V126.25A1.75,1.75,0,0,0,8.5,128h111a1.75,1.75,0,0,0,1.75-1.75V110.832A24.218,24.218,0,0,0,103.462,87.527Zm-50.484,18.39a12.263,12.263,0,0,1-12.25-12.25V89.142c.093-.009.186-.015.279-.024a18.905,18.905,0,0,0,14.971,7.465H72.022a18.91,18.91,0,0,0,14.947-7.431c.1.011.2.017.3.027v4.488a12.263,12.263,0,0,1-12.25,12.25ZM53,49.587a4.172,4.172,0,0,0,4.167-4.166,4.093,4.093,0,0,0-.144-1.027H70.977a4.093,4.093,0,0,0-.144,1.027,4.167,4.167,0,0,0,8.334,0,4.093,4.093,0,0,0-.144-1.027h8.249V55.059A10.036,10.036,0,0,0,79,64.927v1.032a1.55,1.55,0,0,1-1.549,1.548H75.882a1.549,1.549,0,0,1-1.549-1.576,4.832,4.832,0,0,0-1.408-3.5,5.133,5.133,0,0,0-3.64-1.525H58.715a5.049,5.049,0,0,0-5.048,5.137,1.362,1.362,0,0,1-.4.981,1.615,1.615,0,0,1-1.145.479H50.549A1.55,1.55,0,0,1,49,65.959V64.927a10.036,10.036,0,0,0-8.272-9.868V44.394h8.249a4.093,4.093,0,0,0-.144,1.027A4.172,4.172,0,0,0,53,49.587ZM40.728,58.651A6.528,6.528,0,0,1,45.5,64.927v1.032a5.055,5.055,0,0,0,5.049,5.048h1.569a5.132,5.132,0,0,0,3.641-1.526,4.838,4.838,0,0,0,1.408-3.495,1.547,1.547,0,0,1,1.548-1.576h10.57a1.617,1.617,0,0,1,1.145.479,1.362,1.362,0,0,1,.4.981,5.049,5.049,0,0,0,5.048,5.137h1.569A5.055,5.055,0,0,0,82.5,65.959V64.927a6.528,6.528,0,0,1,4.772-6.276V77.833a15.178,15.178,0,0,1-3.47,9.673,15.363,15.363,0,0,1-2.052,2.06V79.25a1.75,1.75,0,0,0-3.5,0V91.739c-3.926,1.764-8.305,1.344-12.5,1.344V85.375a1.75,1.75,0,0,0-3.5,0v7.708c-4.194,0-8.575.421-12.5-1.344V79.25a1.75,1.75,0,0,0-3.5,0V89.566a15.277,15.277,0,0,1-5.522-11.733Zm50.044-2.7v-9.89a5.06,5.06,0,0,1,0,9.89ZM64,3.79c4.146,2.56,21.919,14.39,23.2,29.8H40.8C42.081,18.18,59.854,6.35,64,3.79Zm-27.68,33.3H91.68a1.9,1.9,0,0,1,0,3.807H36.32a1.9,1.9,0,0,1,0-3.807ZM32.991,51a5.068,5.068,0,0,1,4.237-4.993V56A5.068,5.068,0,0,1,32.991,51ZM10.25,110.832A20.7,20.7,0,0,1,25,91.051V124.5H10.25ZM28.5,124.5V90.254a87.364,87.364,0,0,1,8.728-.84v4.253a15.767,15.767,0,0,0,15.75,15.75h9.064v5.916a1.75,1.75,0,0,0,3.5,0v-5.916h9.48a15.767,15.767,0,0,0,15.75-15.75v-4.21c2.915.2,5.841.33,8.728.8V124.5Zm89.25,0H103V91.051a20.7,20.7,0,0,1,14.75,19.781Z"/><path d="M62.083,70.754H65.5a1.75,1.75,0,0,0,0-3.5H62.083a1.75,1.75,0,1,0,0,3.5Z"/><path d="M56.625,84.5a1.75,1.75,0,0,0,1.75-1.75V75.744a1.75,1.75,0,0,0-3.5,0V82.75A1.75,1.75,0,0,0,56.625,84.5Z"/><path d="M71.375,84.5a1.75,1.75,0,0,0,1.75-1.75V75.744a1.75,1.75,0,0,0-3.5,0V82.75A1.75,1.75,0,0,0,71.375,84.5Z"/></g></svg>
