<?xml version="1.0" encoding="utf-8"?>
<!-- Svg Vector Icons : http://www.onlinewebfonts.com/icon -->
<!DOCTYPE svg PUBLIC "-//W3C//DTD SVG 1.1//EN" "http://www.w3.org/Graphics/SVG/1.1/DTD/svg11.dtd">
<svg version="1.1" xmlns="http://www.w3.org/2000/svg" xmlns:xlink="http://www.w3.org/1999/xlink" x="0px" y="0px" viewBox="0 0 1000 1000" enable-background="new 0 0 1000 1000" xml:space="preserve">
<metadata> Svg Vector Icons : http://www.onlinewebfonts.com/icon </metadata>
<g fill="#272341"><g  transform="translate(0.000000,511.000000) scale(0.100000,-0.100000)"><path d="M697.8,4988.2c-39.5-17.8-87-92.9-87-136.4c0-9.9,174-438.9,387.5-952.9l387.5-933.2l508.1-508.1c446.8-450.8,500.2-510.1,450.8-510.1c-31.6,0-75.1-19.8-104.8-49.4l-47.4-49.4l4-1565.9l5.9-1567.8l57.3-136.4l55.4-136.4l-268.9-268.9l-268.9-268.9l-351.9,351.9c-367.7,365.8-387.5,377.6-494.3,322.3c-63.3-33.6-543.7-518-575.3-579.3c-11.9-23.7-21.8-59.3-21.8-77.1c0-19.8,160.1-195.7,355.9-391.5l355.9-357.8l-243.2-247.1c-203.6-205.6-257-272.8-322.3-403.3c-75.1-156.2-77.1-162.1-77.1-375.6c0-253.1,35.6-367.7,164.1-535.8c164.1-217.5,379.6-326.2,666.3-342c320.3-15.8,494.3,73.2,850.2,429l215.5,219.5l361.8-357.9c348-348,361.8-359.8,425.1-346c49.4,9.9,132.5,81,355.9,304.5c261,261,292.6,300.5,292.6,359.8c0,59.3-35.6,102.8-350,419.2l-349.9,351.9l225.4,227.4c124.6,124.6,233.3,227.4,241.2,227.4c7.9,0,89-59.3,177.9-132.5c529.9-427.1,1047.9-672.2,1314.8-620.8c316.3,61.3,705.8,294.6,1217.9,729.5l176,148.3l288.7-288.7l290.6-290.6l-351.9-351.9c-314.4-316.3-350-359.8-350-419.2c0-59.3,31.6-98.9,292.6-359.8c223.4-223.4,306.5-294.6,355.9-304.5c63.3-13.8,77.1-2,425.1,346l361.8,357.9l205.6-209.6c257-259,359.8-336.1,529.9-395.4c351.9-124.6,753.3-7.9,980.7,282.7c176,223.4,233.3,525.9,154.2,788.8c-57.3,185.8-120.6,276.8-387.5,551.6l-229.3,235.3l355.9,357.8c195.7,197.7,355.9,373.7,355.9,393.4c0,17.8-11.9,57.3-27.7,87c-33.6,63.3-518,543.7-579.3,575.3c-96.9,49.4-122.6,31.6-480.4-324.2c-191.8-189.8-353.9-346-361.8-346c-7.9,0-166.1,150.2-351.9,334.1l-340.1,334.1l33.6,94.9c27.7,83,31.6,265,31.6,1641v1548.1l-51.4,39.5c-39.5,31.6-81.1,41.5-172,41.5H7246l502.2,510.1l504.2,508.1l401.3,923.3c300.5,692,399.4,935.2,389.5,968.8c-23.7,75.1-71.2,114.7-140.4,114.7c-37.6,0-433-154.2-990.5-385.5L6987,4201.3l-802.7-804.7L5379.6,2594l-75.1,57.3c-43.5,31.6-132.5,102.8-201.7,160.1c-162.1,136.4-197.7,136.4-371.7,0c-75.1-57.3-197.7-148.3-270.9-199.7l-136.4-96.9L3471.7,3365l-854.1,852.1l-911.4,397.4C1204,4834,780.9,5012,767,5010C751.2,5010,719.6,5000.1,697.8,4988.2z M1826.7,4223.1l632.7-278.8l794.8-794.8c551.6-551.6,788.9-802.7,777-816.5c-39.5-47.5-391.5-207.6-561.5-257c-96.9-27.7-282.7-65.2-411.2-83l-235.3-33.6L2240,2542.6l-581.3,581.3l-296.6,711.8c-162.1,391.5-296.6,713.7-296.6,715.7C1065.6,4557.2,1099.2,4541.4,1826.7,4223.1z M8570.6,4484.1c-7.9-19.8-140.4-326.2-294.6-682.1l-280.8-646.5l-587.2-587.2l-585.2-587.2l-126.5,25.7c-223.4,45.5-496.2,140.4-737.5,257c-130.5,63.3-253.1,126.5-272.8,140.4c-31.6,25.7,33.6,94.9,721.7,782.9l757.2,755.3l692,286.7c381.6,158.2,699.9,288.7,709.8,288.7C8574.6,4517.7,8576.6,4501.9,8570.6,4484.1z M5296.6,2281.6c237.2-160.1,686.1-385.5,919.4-464.6c247.1-81.1,549.6-144.3,826.4-168.1l251.1-23.7V229.3c-2-1117.1-7.9-1411.6-27.7-1470.9c-132.5-365.8-935.2-1229.8-1607.4-1728c-221.4-164.1-478.5-308.4-618.8-351.9c-106.8-31.6-136.4-33.6-233.3-13.8c-344,71.2-921.3,484.4-1538.2,1099.3c-375.6,377.6-577.3,624.8-690,850.1l-69.2,136.4V197.7V1645l253.1,11.9c278.8,13.8,634.7,69.2,844.2,132.5c280.8,87,790.8,377.6,1186.3,678.1l118.6,89l89-67.2C5049.4,2451.6,5181.9,2358.7,5296.6,2281.6z M7599.9-2718.5c-217.5-217.5-401.3-395.4-411.2-395.4c-7.9,0-140.4,124.6-294.6,276.8l-278.8,276.8l174,181.9c185.8,193.8,417.2,466.6,514.1,603l59.3,83l316.3-314.3l316.3-316.3L7599.9-2718.5z M3220.6-4270.5l-148.3-148.3L1895.9-3242.4L719.6-2066.1l148.3,148.3l148.3,148.3l1176.4-1176.4l1176.4-1176.4L3220.6-4270.5z M8104.1-3242.4L6927.7-4418.8l-148.3,148.3l-148.3,148.3l1176.4,1176.4l1176.4,1176.4l148.3-148.3l148.3-148.3L8104.1-3242.4z M2629.5-1996.9c67.2-87,239.2-276.8,381.6-423.1l259-262.9l-227.4-215.5c-124.6-118.6-231.3-215.5-237.3-215.5s-187.8,177.9-405.3,395.4l-395.4,395.4l247.1,247.1c134.4,134.4,247.1,243.2,249.1,241.2C2502.9-1836.7,2560.3-1909.9,2629.5-1996.9z M1895.9-4055c-249.1-251.1-344-318.3-498.2-355.9c-104.8-25.7-148.3-27.7-237.3-9.9c-268.9,57.3-458.7,292.6-456.7,565.4c2,195.7,51.4,282.7,328.2,559.5l241.2,241.2l405.3-405.3l405.3-405.3L1895.9-4055z M9250.8-3633.9c118.6-272.8,4-591.2-259-723.6c-102.8-51.4-146.3-61.3-263-61.3c-211.5,0-304.5,51.4-581.3,326.2l-231.3,225.4l405.3,407.3l405.3,405.3l241.2-241.2C9142-3469.8,9221.1-3564.7,9250.8-3633.9z"/><path d="M4636.2,1795.2c-527.9-385.5-788.9-482.4-1378-514.1c-225.4-9.9-259-15.8-294.6-55.4c-39.5-43.5-39.5-57.3-35.6-1148.7l5.9-1105.2l65.2-132.5c215.5-438.9,955-1130.9,1498.7-1405.7c166.1-83,280.7-116.7,403.3-116.7c286.7,4,826.4,353.9,1356.3,881.8c298.5,298.6,464.6,508.1,553.6,694l47.5,98.8V94.9c0,1043.9-2,1103.2-35.6,1136.8c-31.6,31.6-81.1,39.5-292.6,49.4c-280.8,11.9-549.6,71.2-763.2,164.1c-193.8,85-492.3,259-662.3,385.5c-96.9,73.1-174,116.6-205.6,116.6C4865.6,1947.5,4772.6,1892.1,4636.2,1795.2z M5085,1467c440.9-294.6,970.8-488.3,1336.5-488.3c49.4,0,102.8-7.9,116.6-15.8c19.8-13.8,23.7-213.5,19.8-976.7l-5.9-958.9l-71.2-106.8c-261-389.5-953-1010.3-1360.3-1219.9c-199.7-102.8-261-102.8-460.7-9.9c-474.5,225.4-1340.5,1045.9-1417.6,1348.4c-19.8,75.1-27.7,1818.9-7.9,1896c9.9,37.6,21.7,43.5,114.7,43.5c59.3,0,176,9.9,261,21.7c389.5,51.4,656.4,164.1,1063.7,440.9c120.6,83,221.4,146.3,227.4,144.3C4907.1,1583.7,4988.1,1530.3,5085,1467z"/></g></g>
</svg>