<svg  viewBox="-10 0 511 512" fill="#fff" xmlns="http://www.w3.org/2000/svg"><path d="m246.421875 427.339844c-42.234375 0-76.597656 34.363281-76.597656 76.597656 0 4.453125 3.605469 8.0625 8.0625 8.0625s8.0625-3.609375 8.0625-8.0625c0-33.347656 27.128906-60.472656 60.472656-60.472656 33.347656 0 60.476563 27.125 60.476563 60.472656 0 4.453125 3.605468 8.0625 8.0625 8.0625 4.457031 0 8.0625-3.609375 8.0625-8.0625 0-42.238281-34.363282-76.597656-76.601563-76.597656zm0 0"/><path d="m395.585938 290.265625v-42.5625c34.085937-6.597656 63.609374-27.445313 81.113281-57.46875l12.800781-21.933594c3.789062-6.503906 3.8125-14.285156.0625-20.8125-3.753906-6.519531-10.480469-10.417969-18.007812-10.417969h-75.96875v-28.78125c0-66.796874-49.511719-108.289062-129.207032-108.289062h-39.921875c-79.691406 0-129.203125 41.492188-129.203125 108.289062v28.78125h-74.625c-7.527344 0-14.269531 3.898438-18.015625 10.429688-3.75 6.527344-3.71875 14.308594.066407 20.804688l12.796874 21.929687c17.285157 29.628906 46.28125 50.269531 79.777344 57.152344v18.691406h-8.0625c-4.457031 0-8.0625 3.609375-8.0625 8.0625v54.601563c0 18.90625 6.460938 36.292968 17.203125 50.214843h-8.0625c-49.503906 0-89.769531 30.703125-89.769531 68.4375v44.445313c0 4.453125 3.605469 8.0625 8.0625 8.0625s8.0625-3.609375 8.0625-8.0625v-44.445313c0-28.84375 33.042969-52.3125 73.648438-52.3125h23.867187c.191406 0 .351563-.09375.535156-.105469 13.710938 10.148438 30.601563 16.234376 48.925781 16.234376h11.683594c-28.414062 21.820312-45.777344 55.871093-45.777344 92.722656 0 4.453125 3.605469 8.0625 8.066407 8.0625 4.453125 0 8.0625-3.609375 8.0625-8.0625 0-40.003906 23.675781-76.25 60.324219-92.339844.210937-.09375.34375-.277344.546874-.382812h80.0625c.320313.199218.554688.488281.910157.648437 36.28125 16.203125 59.734375 52.347656 59.734375 92.074219 0 4.453125 3.605468 8.0625 8.0625 8.0625 4.457031 0 8.0625-3.609375 8.0625-8.0625 0-36.902344-17.476563-71.109375-46.039063-92.9375 16.917969-.851563 32.480469-6.800782 45.222657-16.378906.742187.226562 1.484374.464843 2.304687.464843h39.039063c35.449218 0 64.292968 20.371094 64.292968 45.402344v51.355469c0 4.453125 3.605469 8.0625 8.0625 8.0625 4.457032 0 8.0625-3.609375 8.0625-8.0625v-51.355469c0-33.925781-36.078125-61.527344-80.417968-61.527344h-25.476563c10.738281-13.925781 17.203125-31.308593 17.203125-50.214843v-38.476563zm75.972656-137.070313c2.421875 0 3.621094 1.632813 4.023437 2.332032.398438.699218 1.210938 2.558594-.007812 4.652344l-12.804688 21.929687c-14.628906 25.089844-38.980469 42.6875-67.183593 49.035156v-16.871093c12.769531-3.554688 23.671874-9.664063 30.9375-17.863282l6.472656-7.3125c2.992187-3.386718 3.734375-7.976562 1.929687-11.976562-2.132812-4.738282-7.4375-7.796875-13.527343-7.796875h-25.8125v-16.128907zm-440.152344 28.914063-12.792969-21.925781c-1.222656-2.097656-.417969-3.953125-.015625-4.65625.398438-.703125 1.597656-2.328125 4.03125-2.328125h74.625v16.125h-25.804687c-6.089844 0-11.394531 3.0625-13.53125 7.800781-1.800781 3.996094-1.058594 8.589844 1.929687 11.976562l6.472656 7.3125c7.269532 8.195313 18.171876 14.304688 30.9375 17.859376v16.554687c-27.628906-6.597656-51.445312-24.023437-65.851562-48.71875zm348.054688 146.636719c0 36.578125-29.761719 66.339844-66.34375 66.339844h-149.515626c-36.578124 0-66.34375-29.757813-66.34375-66.339844v-46.542969h24.1875c4.457032 0 8.0625-3.609375 8.0625-8.0625s-3.605468-8.0625-8.0625-8.0625h-8.0625v-157.789063c0-57.710937 42.277344-92.164062 113.082032-92.164062h39.921875c70.800781 0 113.078125 34.453125 113.078125 92.164062v157.789063h-48.378906v-56.441406l-40.316407 56.441406h-88.691406l-40.316406-56.441406v56.441406h-8.0625c-4.457031 0-8.0625 3.609375-8.0625 8.0625s3.605469 8.0625 8.0625 8.0625h225.765625v46.542969zm0 0"/><path d="m306.894531 169.324219c22.230469 0 40.316407-18.089844 40.316407-40.316407 0-4.453124-3.605469-8.0625-8.0625-8.0625h-64.503907c-4.457031 0-8.0625 3.609376-8.0625 8.0625 0 22.226563 18.085938 40.316407 40.3125 40.316407zm22.8125-32.253907c-3.328125 9.386719-12.300781 16.128907-22.808593 16.128907-10.511719 0-19.484376-6.742188-22.8125-16.128907zm0 0"/><path d="m185.949219 169.324219c22.230469 0 40.316406-18.089844 40.316406-40.316407 0-4.453124-3.605469-8.0625-8.0625-8.0625h-64.503906c-4.457031 0-8.0625 3.609376-8.0625 8.0625 0 22.226563 18.085937 40.316407 40.3125 40.316407zm22.8125-32.253907c-3.328125 9.386719-12.300781 16.128907-22.808594 16.128907-10.511719 0-19.480469-6.742188-22.8125-16.128907zm0 0"/><path d="m234.328125 201.574219c0-8.90625-3.609375-16.125-8.0625-16.125s-8.0625 7.21875-8.0625 16.125 3.609375 16.128906 8.0625 16.128906 8.0625-7.222656 8.0625-16.128906zm0 0"/><path d="m274.644531 201.574219c0-8.90625-3.609375-16.125-8.0625-16.125-4.457031 0-8.066406 7.21875-8.066406 16.125s3.609375 16.128906 8.066406 16.128906c4.453125 0 8.0625-7.222656 8.0625-16.128906zm0 0"/></svg>